<svg width="512" height="512" viewBox="0 0 512 512" fill="none" xmlns="http://www.w3.org/2000/svg">
<path d="M221.09 64C190.021 64 159.649 73.2132 133.815 90.4744C107.982 107.736 87.8475 132.27 75.9578 160.974C64.068 189.679 60.9571 221.264 67.0184 251.737C73.0798 282.209 88.0412 310.2 110.011 332.169C131.98 354.139 159.971 369.1 190.443 375.162C220.916 381.223 252.501 378.112 281.206 366.222C309.91 354.332 334.444 334.198 351.706 308.365C368.967 282.531 378.18 252.159 378.18 221.09C378.177 179.428 361.626 139.473 332.166 110.014C302.707 80.554 262.752 64.0027 221.09 64V64Z" stroke="white" stroke-width="32" stroke-miterlimit="10"/>
<path d="M338.29 338.29L448 448" stroke="white" stroke-width="32" stroke-miterlimit="10" stroke-linecap="round"/>
</svg>
